Coordinates
version=1
nRows=10
nColumns=40
inDegrees=yes

Units are S.I. units (second, meters, Newtons, ...)
Angles are in degrees.

endheader
time	pelvis_tilt	pelvis_list	pelvis_rotation	pelvis_tx	pelvis_ty	pelvis_tz	hip_flexion_r	hip_adduction_r	hip_rotation_r	knee_angle_r	knee_angle_r_beta	ankle_angle_r	subtalar_angle_r	mtp_angle_r	hip_flexion_l	hip_adduction_l	hip_rotation_l	knee_angle_l	knee_angle_l_beta	ankle_angle_l	subtalar_angle_l	mtp_angle_l	lumbar_extension	lumbar_bending	lumbar_rotation	arm_flex_r	arm_add_r	arm_rot_r	elbow_flex_r	pro_sup_r	wrist_flex_r	wrist_dev_r	arm_flex_l	arm_add_l	arm_rot_l	elbow_flex_l	pro_sup_l	wrist_flex_l	wrist_dev_l
      0.00000000	     -6.06308176	     -2.88163896	      9.96843880	     -1.39060536	      0.91953889	     -1.02935210	     30.21895329	     -5.24206694	    -26.14120560	    -16.19003166	     -0.28256936	     -6.04154873	      2.37599922	      1.94661528	     -6.96901133	      4.26716038	     20.60668109	    -13.69707029	     -0.23905897	      8.63725944	     -2.71683887	    -16.98188940	     -3.53084938	      2.20440717	     -7.81571768	     -1.44838713	     -8.08275517	    -25.61450350	     17.26095196	     89.95437384	      0.00000000	      0.00000000	      7.63673252	     15.25543615	     13.49845555	     31.95343527	     89.95437384	      0.00000000	      0.00000000
      0.01000000	     -6.05284880	     -3.15204010	     10.03333965	     -1.38272851	      0.91966967	     -1.02803506	     29.87975065	     -4.83441849	    -26.40270836	    -16.30384326	     -0.28455575	     -6.50549911	      2.27269326	      1.97324789	     -7.16433499	      4.83852849	     20.09939599	    -14.18178261	     -0.24751880	      8.22302087	     -2.33356794	    -16.75277699	     -3.51952117	      2.55003962	     -7.96652894	     -1.68319014	     -8.13969529	    -25.65022066	     16.92405189	     89.95437384	      0.00000000	      0.00000000	      7.41194925	     14.75093576	     13.23848935	     32.09729037	     89.95437384	      0.00000000	      0.00000000
      0.02000000	     -5.99907048	     -3.58318081	     10.09357367	     -1.37487903	      0.92004270	     -1.02659768	     29.52670661	     -4.24912171	    -26.68073116	    -16.24502708	     -0.28352921	     -6.78341358	      1.64162799	      1.88640532	     -7.21609301	      5.63772748	     19.68048607	    -14.97141768	     -0.26130053	      7.88456381	     -1.80503112	    -16.53337373	     -3.56288453	      3.06823143	     -7.95688442	     -2.03079361	     -8.19557051	    -25.78635127	     16.94002231	     89.95437384	      0.00000000	      0.00000000	      7.40644307	     14.19148136	     12.89945594	     32.07431785	     89.95437384	      0.00000000	      0.00000000
      0.03000000	     -6.20725813	     -3.44207861	      9.97707203	     -1.36682165	      0.92034223	     -1.02487151	     29.60909070	     -4.30557916	    -26.21484366	    -16.70550306	     -0.29156603	     -6.77898073	      1.52185807	      1.84116806	     -7.20074430	      5.72356621	     19.26040143	    -15.56708090	     -0.27169682	      7.56466640	     -1.68123486	    -16.13615691	     -3.44142571	      2.90930750	     -7.96027276	     -2.46348313	     -8.13153957	    -25.65538870	     17.12690134	     89.95437384	      0.00000000	      0.00000000	      7.07531110	     13.77714994	     12.78394008	     32.29344686	     89.95437384	      0.00000000	      0.00000000
      0.04000000	     -6.24062120	     -4.33002067	     10.20245579	     -1.35855588	      0.92101192	     -1.02299879	     29.46647435	     -3.28274077	    -26.26814498	    -16.96799773	     -0.29614743	     -7.01574295	     -0.23667960	      1.55435363	     -6.68506464	      7.16978058	     18.75172845	    -17.11402627	     -0.29869611	      6.97894191	     -0.61182667	    -15.82884123	     -3.22617613	      3.91760990	     -8.17818311	     -2.49116642	     -8.26662700	    -25.81564616	     16.45008052	     89.95437384	      0.00000000	      0.00000000	      6.60542642	     13.25805589	     12.42785716	     32.45833328	     89.95437384	      0.00000000	      0.00000000
      0.05000000	     -6.30654054	     -4.61979635	     10.03268631	     -1.35012315	      0.92177799	     -1.02082523	     29.45608330	     -2.72596769	    -25.48230738	    -17.67367341	     -0.30846379	     -6.67496166	     -0.67693600	      1.36324794	     -6.56351494	      7.80720994	     18.46623703	    -18.08712504	     -0.31567988	      6.24436081	     -0.06589148	    -15.36660086	     -3.13471325	      4.20803349	     -7.93129557	     -2.75652014	     -8.33405653	    -25.62770921	     16.16474547	     89.95437384	      0.00000000	      0.00000000	      6.54812890	     12.81344443	     12.05719811	     32.28175683	     89.95437384	      0.00000000	      0.00000000
      0.06000000	     -6.46073794	     -5.11045180	     10.00070485	     -1.34151134	      0.92270191	     -1.01823130	     29.43269231	     -1.82302028	    -24.31192314	    -18.05364378	     -0.31509553	     -6.64389347	     -2.09449454	      0.98050544	     -6.05373637	      8.77899948	     18.09474527	    -19.52314843	     -0.34074322	      5.44987836	      0.48968490	    -15.18216066	     -2.91651932	      4.70795112	     -7.93392207	     -2.95723942	     -8.32084373	    -25.63606985	     15.92830366	     89.95437384	      0.00000000	      0.00000000	      6.10047101	     12.47496493	     11.63686352	     32.41090548	     89.95437384	      0.00000000	      0.00000000
      0.07000000	     -6.44189386	     -5.41706311	      9.94117382	     -1.33241217	      0.92398488	     -1.01614387	     29.18456180	     -1.19932206	    -23.55818730	    -18.57352666	     -0.32416919	     -6.05553011	     -2.66605502	      0.83751287	     -5.84039910	      9.44718833	     17.55377291	    -20.79175910	     -0.36288465	      4.54068502	      1.53132941	    -14.69076976	     -2.81541219	      5.06581102	     -7.83402967	     -3.18808178	     -8.41672373	    -25.26863717	     15.63543561	     89.95437384	      0.00000000	      0.00000000	      5.62874526	     12.10324814	     11.11801628	     32.39069903	     89.95437384	      0.00000000	      0.00000000
      0.08000000	     -6.31275847	     -5.42559521	      9.85372057	     -1.32347173	      0.92550673	     -1.01400493	     28.88977214	     -0.92865928	    -22.89676250	    -19.39645817	     -0.33853206	     -5.54692119	     -2.87275963	      0.73566478	     -5.71398176	      9.81552570	     17.04852220	    -22.11154137	     -0.38591920	      3.29964525	      2.09779996	    -14.03985372	     -2.95280367	      5.05572271	     -7.61729039	     -3.40358289	     -8.43287189	    -24.91538451	     15.36837955	     89.95437384	      0.00000000	      0.00000000	      5.42084180	     11.80200302	     10.69506370	     32.30775715	     89.95437384	      0.00000000	      0.00000000
      0.09000000	     -6.12662775	     -5.57336620	      9.87992884	     -1.31372098	      0.92717859	     -1.01185158	     28.23435103	     -0.38349505	    -22.35939967	    -19.68514260	     -0.34357055	     -4.57222713	     -3.50174794	      0.64110388	     -5.50036708	     10.45342149	     16.87138104	    -23.66879064	     -0.41309833	      1.68921882	      3.29254127	    -13.33378020	     -2.97750987	      5.23777193	     -7.70669474	     -3.41171834	     -8.49054813	    -24.54234267	     14.78734002	     89.95437384	      0.00000000	      0.00000000	      4.91293239	     11.62011579	     10.12878306	     32.12018987	     89.95437384	      0.00000000	      0.00000000
